<svg width="68" height="48" viewBox="0 0 68 48" fill="none" xmlns="http://www.w3.org/2000/svg">
<g id="Option 1">
<path id="polygon" d="M34.5 2.13397L34 1.8453L33.5 2.13397L15.3135 12.634L14.8135 12.9226V13.5V34.5V35.0774L15.3135 35.366L33.5 45.866L34 46.1547L34.5 45.866L52.6865 35.366L53.1865 35.0774V34.5V13.5V12.9226L52.6865 12.634L34.5 2.13397Z" fill="#171717" stroke="#DA0037" stroke-width="2"/>
<path id="P" d="M29.4992 31V17.9091H34.4083C35.414 17.9091 36.2577 18.0966 36.9395 18.4716C37.6256 18.8466 38.1434 19.3622 38.4928 20.0185C38.8465 20.6705 39.0233 21.4119 39.0233 22.2429C39.0233 23.0824 38.8465 23.8281 38.4928 24.4801C38.1391 25.1321 37.6171 25.6456 36.9268 26.0206C36.2364 26.3913 35.3863 26.5767 34.3763 26.5767H31.1228V24.6271H34.0567C34.6448 24.6271 35.1263 24.5249 35.5013 24.3203C35.8763 24.1158 36.1533 23.8345 36.3323 23.4766C36.5155 23.1186 36.6072 22.7074 36.6072 22.2429C36.6072 21.7784 36.5155 21.3693 36.3323 21.0156C36.1533 20.6619 35.8742 20.3871 35.4949 20.1911C35.1199 19.9908 34.6363 19.8906 34.0439 19.8906H31.8707V31H29.4992Z" fill="#DA0037"/>
</g>
</svg>
